<svg xmlns="http://www.w3.org/2000/svg" viewBox="0 0 64 64">
  <!-- Mercia: a walled hill castle flying a gold saltire on burgundy -->
  <defs>
    <linearGradient id="hill" x1="0" y1="0" x2="0" y2="1"><stop offset="0" stop-color="#9aa463"/><stop offset="1" stop-color="#5d6735"/></linearGradient>
    <linearGradient id="wall" x1="0" y1="0" x2="1" y2="0"><stop offset="0" stop-color="#efe1b8"/><stop offset=".6" stop-color="#d6c08e"/><stop offset="1" stop-color="#a88e5c"/></linearGradient>
    <linearGradient id="keep" x1="0" y1="0" x2="1" y2="0"><stop offset="0" stop-color="#f3e6c0"/><stop offset=".55" stop-color="#dcc796"/><stop offset="1" stop-color="#b19763"/></linearGradient>
    <linearGradient id="roof" x1="0" y1="0" x2="1" y2="1"><stop offset="0" stop-color="#d0643f"/><stop offset="1" stop-color="#7a2c1c"/></linearGradient>
  </defs>
  <ellipse cx="32" cy="60" rx="29" ry="3.4" fill="#000" opacity=".28"/>
  <g stroke="#2b2118" stroke-width="1.3" stroke-linejoin="round" stroke-linecap="round">
    <path d="M2 59C6 51 16 47 32 47S58 51 62 59Z" fill="url(#hill)"/>
    <path d="M23 49V17h3v-3h3.5v3H34v-3h3.5v3H41v32Z" fill="url(#keep)"/>
    <path d="M32 14V1.5"/>
    <path d="M32 2H47V13H32Z" fill="#8e1f24"/>
    <path d="M33.2 3.2L45.8 11.8M45.8 3.2L33.2 11.8" stroke="#f0cf6e" stroke-width="2.2" stroke-linecap="butt"/>
    <path d="M32 2H47V13H32Z" fill="none"/>
    <path d="M6 24L11.5 11L17 24Z" fill="url(#roof)"/>
    <rect x="7" y="24" width="9" height="27" fill="url(#wall)"/>
    <path d="M47 24L52.5 11L58 24Z" fill="url(#roof)"/>
    <rect x="48" y="24" width="9" height="27" fill="url(#wall)"/>
    <path d="M16 51V35h2.6v-2.6h2.6V35h2.6v-2.6h2.6V35h2.6v-2.6h2.6V35h2.6v-2.6h2.6V35h2.6v-2.6h2.6V35h2.6v-2.6h2.6V35H48v16Z" fill="url(#wall)"/>
    <path d="M27.5 51V43a4.5 4.5 0 0 1 9 0v8Z" fill="#2b2118"/>
  </g>
  <path d="M28.5 45.5h7M28.5 48.5h7M30.5 42v9M33.5 42v9" stroke="#8a7650" stroke-width=".7"/>
  <g fill="#2b2118" opacity=".7">
    <rect x="30.6" y="21" width="2.8" height="5" rx="1.4"/>
    <rect x="10.5" y="30" width="2" height="4" rx="1"/><rect x="51.5" y="30" width="2" height="4" rx="1"/>
    <rect x="10.5" y="39" width="2" height="4" rx="1"/><rect x="51.5" y="39" width="2" height="4" rx="1"/>
  </g>
</svg>
