<svg xmlns="http://www.w3.org/2000/svg" viewBox="0 0 64 64">
  <defs>
    <linearGradient id="tower" x1="0" y1="0" x2="0" y2="1"><stop offset="0" stop-color="#e8c66e"/><stop offset="1" stop-color="#a07c24"/></linearGradient>
    <linearGradient id="dark" x1="0" y1="0" x2="0" y2="1"><stop offset="0" stop-color="#3a5a96"/><stop offset="1" stop-color="#1c3262"/></linearGradient>
  </defs>
  <ellipse cx="32" cy="58" rx="27" ry="3.5" fill="#000" opacity=".25"/>
  <g stroke="#2b2118" stroke-width="1.4" stroke-linejoin="round">
    <path d="M6 57V30h10v27z" fill="url(#dark)"/>
    <path d="M46 57V24h12v33z" fill="url(#dark)"/>
    <path d="M17 57V18l7-5 7 5v39z" fill="url(#tower)"/>
    <path d="M32 57V8h12v49z" fill="url(#tower)"/>
    <path d="M38 8V3"/>
  </g>
  <g fill="#2b2118" opacity=".55">
    <rect x="20" y="22" width="2.5" height="3"/><rect x="25.5" y="22" width="2.5" height="3"/>
    <rect x="20" y="30" width="2.5" height="3"/><rect x="25.5" y="30" width="2.5" height="3"/>
    <rect x="20" y="38" width="2.5" height="3"/><rect x="25.5" y="38" width="2.5" height="3"/>
    <rect x="35" y="13" width="2.5" height="3"/><rect x="39" y="13" width="2.5" height="3"/>
    <rect x="35" y="21" width="2.5" height="3"/><rect x="39" y="21" width="2.5" height="3"/>
    <rect x="35" y="29" width="2.5" height="3"/><rect x="39" y="29" width="2.5" height="3"/>
    <rect x="35" y="37" width="2.5" height="3"/><rect x="39" y="37" width="2.5" height="3"/>
  </g>
  <g fill="#e8c66e" opacity=".7">
    <rect x="9" y="35" width="2" height="2.5"/><rect x="12.5" y="41" width="2" height="2.5"/>
    <rect x="49" y="29" width="2" height="2.5"/><rect x="53" y="36" width="2" height="2.5"/><rect x="49" y="43" width="2" height="2.5"/>
  </g>
</svg>
