<svg xmlns="http://www.w3.org/2000/svg" viewBox="0 0 64 64"><defs>
      <linearGradient id="au" x1="0" y1="0" x2="0" y2="1"><stop offset="0" stop-color="#fff0b0"/><stop offset=".35" stop-color="#e6bd4e"/><stop offset="1" stop-color="#9a6f1c"/></linearGradient>
    </defs>
    <ellipse cx="32" cy="57" rx="25" ry="3.5" fill="#000" opacity=".22"/>
    <path d="M16 34c0-12 7-18 16-18s16 6 16 18z" fill="#8e1f24" stroke="#2b2118" stroke-width="1.6" stroke-linejoin="round" stroke-linecap="round"/>
    <path d="M10 46L6 18l14 12 12-19 12 19 14-12-4 28z" fill="url(#au)" stroke="#2b2118" stroke-width="1.6" stroke-linejoin="round" stroke-linecap="round"/>
    <rect x="9" y="44" width="46" height="9" rx="2" fill="url(#au)" stroke="#2b2118" stroke-width="1.6" stroke-linejoin="round" stroke-linecap="round"/>
    <circle cx="6" cy="17" r="3" fill="#f6efe2" stroke="#2b2118" stroke-width="1.6" stroke-linejoin="round" stroke-linecap="round"/><circle cx="32" cy="10" r="3.2" fill="#f6efe2" stroke="#2b2118" stroke-width="1.6" stroke-linejoin="round" stroke-linecap="round"/><circle cx="58" cy="17" r="3" fill="#f6efe2" stroke="#2b2118" stroke-width="1.6" stroke-linejoin="round" stroke-linecap="round"/>
    <circle cx="20" cy="48.5" r="2.6" fill="#b3263a" stroke="#2b2118" stroke-width="1.6" stroke-linejoin="round" stroke-linecap="round"/><path d="M29 46l3-2 3 2-3 5z" fill="#2f63b8" stroke="#2b2118" stroke-width="1.6" stroke-linejoin="round" stroke-linecap="round"/><circle cx="44" cy="48.5" r="2.6" fill="#2f8a52" stroke="#2b2118" stroke-width="1.6" stroke-linejoin="round" stroke-linecap="round"/>
    <path d="M14 22l3 20M30 18l1 22" stroke="#fff6cc" stroke-width="1.4" opacity=".6" stroke-linecap="round"/></svg>